<svg width="67" height="19" viewBox="0 0 67 19" fill="none" xmlns="http://www.w3.org/2000/svg">
<path d="M6.7345 16.351C6.7345 17.7076 5.98783 18.8982 3.368 18.8982C0.746289 18.8982 0 17.7076 0 16.351V9.93301C0 8.57784 0.746289 7.38628 3.368 7.38628C5.98783 7.38628 6.7345 8.57784 6.7345 9.93301V10.7436C6.7345 10.975 6.65783 11.0735 6.46043 11.0735H5.57626C5.36322 11.0735 5.28656 10.975 5.28656 10.7436V10.1981C5.28656 9.30385 4.75416 8.75916 3.38288 8.75916C2.01161 8.75916 1.49267 9.30385 1.49267 10.1981V16.0871C1.49267 16.9799 2.01161 17.5247 3.38288 17.5247C4.75416 17.5247 5.28656 16.9799 5.28656 16.0871V15.3092C5.28656 15.0943 5.36322 14.995 5.57626 14.995H6.46043C6.65783 14.995 6.7345 15.0943 6.7345 15.3092V16.351Z" fill="#1D3D50"/>
<path d="M9.78599 12.1906H13.7472V7.83986C13.7472 7.60899 13.8234 7.50875 14.0208 7.50875H14.9659C15.164 7.50875 15.2406 7.60899 15.2406 7.83986V18.4266C15.2406 18.658 15.164 18.7573 14.9659 18.7573H14.0208C13.8234 18.7573 13.7472 18.658 13.7472 18.4266V13.5632H9.78599V18.4266C9.78599 18.658 9.72496 18.7573 9.51193 18.7573H8.58189C8.38392 18.7573 8.30811 18.658 8.30811 18.4266V7.83986C8.30811 7.60899 8.38392 7.50875 8.58189 7.50875H9.51193C9.72496 7.50875 9.78599 7.60899 9.78599 7.83986V12.1906Z" fill="#1D3D50"/>
<path d="M22.628 10.1981C22.628 9.30385 22.018 8.75916 20.6469 8.75916C19.2921 8.75916 18.6817 9.30385 18.6817 10.1981V16.0871C18.6817 16.9799 19.2921 17.5247 20.6469 17.5247C22.018 17.5247 22.628 16.9799 22.628 16.0871V10.1981ZM17.1882 9.93301C17.1882 8.57784 18.042 7.38628 20.6469 7.38628C23.2679 7.38628 24.1214 8.57784 24.1214 9.93301V16.351C24.1214 17.7076 23.2679 18.8982 20.6469 18.8982C18.042 18.8982 17.1882 17.7076 17.1882 16.351V9.93301Z" fill="#1D3D50"/>
<path d="M27.5471 18.4266C27.5471 18.658 27.4847 18.7573 27.2717 18.7573H26.3432C26.1451 18.7573 26.0686 18.658 26.0686 18.4266V7.83986C26.0686 7.60899 26.1451 7.50875 26.3432 7.50875H27.2717C27.4847 7.50875 27.5471 7.60899 27.5471 7.83986V18.4266Z" fill="#1D3D50"/>
<path d="M36.2367 16.4529C36.2367 17.8094 35.489 19 32.8689 19C30.2481 19 29.5015 17.8094 29.5015 16.4529V10.0348C29.5015 8.67966 30.2481 7.48809 32.8689 7.48809C35.489 7.48809 36.2367 8.67966 36.2367 10.0348V10.8454C36.2367 11.0768 36.1601 11.1753 35.9615 11.1753H35.0777C34.8647 11.1753 34.7884 11.0768 34.7884 10.8454V10.2999C34.7884 9.40566 34.2551 8.86098 32.8832 8.86098C31.5134 8.86098 30.9952 9.40566 30.9952 10.2999V16.1889C30.9952 17.0817 31.5134 17.6265 32.8832 17.6265C34.2551 17.6265 34.7884 17.0817 34.7884 16.1889V15.411C34.7884 15.1961 34.8647 15.0968 35.0777 15.0968H35.9615C36.1601 15.0968 36.2367 15.1961 36.2367 15.411V16.4529Z" fill="#1D3D50"/>
<path d="M38.0757 19C37.8771 19 37.8013 18.9007 37.8013 18.6693V8.08254C37.8013 7.85166 37.8771 7.75142 38.0757 7.75142H43.2853C43.4841 7.75142 43.5756 7.83662 43.5756 8.06646V8.81163C43.5756 9.04148 43.4841 9.12492 43.2853 9.12492H39.2788V12.4662H43.0121C43.2251 12.4662 43.3167 12.5479 43.3167 12.781V13.4917C43.3167 13.7068 43.2251 13.8059 43.0121 13.8059H39.2788V17.6272H43.454C43.6522 17.6272 43.7429 17.6926 43.7429 17.924V18.6858C43.7429 18.9172 43.6522 19 43.454 19H38.0757Z" fill="#1D3D50"/>
<path d="M61.3435 7.55367H60.7606V1.34879H61.2594C63.0025 1.34879 63.6508 2.17823 63.6508 4.41208C63.6508 6.73206 63.046 7.55367 61.3435 7.55367ZM61.1633 -8.62624e-05H57.7933C57.5945 -8.62624e-05 57.5037 0.0835693 57.5037 0.314959V1.06002C57.5037 1.29069 57.5945 1.37331 57.7933 1.37331L58.5877 1.37424V7.52822H57.7933C57.5945 7.52822 57.5037 7.61085 57.5037 7.84162V8.58586C57.5037 8.81714 57.5945 8.9009 57.7933 8.9009L61.2354 8.90234C64.2651 8.90234 66.0031 7.26005 66.0031 4.39951C66.0031 1.60409 64.2389 -8.62624e-05 61.1633 -8.62624e-05Z" fill="#1D3D50"/>
<path d="M56.2798 1.37929V1.37836H56.3667C56.5648 1.37836 56.6572 1.29584 56.6572 1.06507V0.320004C56.6572 0.0886137 56.5648 0.00495958 56.3667 0.00495958H56.2798H56.0915H53.1819H52.954H52.9524C52.8054 0.00495958 52.7177 0.0526592 52.6807 0.168148L52.6799 0.169795L51.1806 5.176L49.5785 0.167323H49.5777C49.5417 0.0526578 49.4539 0.00495958 49.3084 0.00495958H49.079H45.8191C45.6208 0.00495958 45.5293 0.0886137 45.5293 0.320004V1.06507C45.5293 1.29584 45.6208 1.37836 45.8191 1.37836H46.5659V7.53327H45.8191C45.6208 7.53327 45.5293 7.61589 45.5293 7.84667V8.5909C45.5293 8.82219 45.6208 8.90595 45.8191 8.90595L48.5566 8.90749C48.7548 8.90749 48.8471 8.82477 48.8471 8.59255V7.84903C48.8471 7.61682 48.7548 7.53399 48.5566 7.53399L47.8464 7.53327V1.8602L50.1447 8.75172C50.1793 8.87308 50.2677 8.92017 50.4162 8.92017H50.9353C51.081 8.92017 51.1678 8.87484 51.204 8.76254L51.2062 8.76017L53.4241 1.86999V7.53327L52.713 7.53399C52.5149 7.53399 52.4235 7.61682 52.4235 7.84903V8.59255C52.4235 8.82477 52.5149 8.90749 52.713 8.90749H56.3667C56.5648 8.90749 56.6572 8.82477 56.6572 8.59255V7.84903C56.6572 7.61682 56.5648 7.53399 56.3667 7.53399L55.595 7.53327V1.37929H56.2798Z" fill="#1D3D50"/>
</svg>
