<svg width="171" height="45" viewBox="0 0 171 45" fill="none" xmlns="http://www.w3.org/2000/svg">
<path d="M17.4476 38.7266C17.4476 41.9393 15.5132 44.7593 8.72576 44.7593C1.93347 44.7593 0 41.9393 0 38.7266V23.526C0 20.3164 1.93347 17.4942 8.72576 17.4942C15.5132 17.4942 17.4476 20.3164 17.4476 23.526V25.4458C17.4476 25.9938 17.249 26.2271 16.7376 26.2271H14.4469C13.8949 26.2271 13.6963 25.9938 13.6963 25.4458V24.1538C13.6963 22.0358 12.317 20.7458 8.76431 20.7458C5.21164 20.7458 3.86719 22.0358 3.86719 24.1538V38.1014C3.86719 40.216 5.21164 41.5062 8.76431 41.5062C12.317 41.5062 13.6963 40.216 13.6963 38.1014V36.259C13.6963 35.75 13.8949 35.5148 14.4469 35.5148H16.7376C17.249 35.5148 17.4476 35.75 17.4476 36.259V38.7266Z" fill="#FFFFFF"/>
<path d="M25.3533 28.8726H35.616V18.5681C35.616 18.0213 35.8134 17.7839 36.3249 17.7839H38.7734C39.2866 17.7839 39.4849 18.0213 39.4849 18.5681V43.642C39.4849 44.1901 39.2866 44.4253 38.7734 44.4253H36.3249C35.8134 44.4253 35.616 44.1901 35.616 43.642V32.1234H25.3533V43.642C25.3533 44.1901 25.1952 44.4253 24.6432 44.4253H22.2337C21.7208 44.4253 21.5244 44.1901 21.5244 43.642V18.5681C21.5244 18.0213 21.7208 17.7839 22.2337 17.7839H24.6432C25.1952 17.7839 25.3533 18.0213 25.3533 18.5681V28.8726Z" fill="#FFFFFF"/>
<path d="M58.6243 24.1538C58.6243 22.0358 57.0439 20.7458 53.4917 20.7458C49.9818 20.7458 48.4001 22.0358 48.4001 24.1538V38.1014C48.4001 40.216 49.9818 41.5062 53.4917 41.5062C57.0439 41.5062 58.6243 40.216 58.6243 38.1014V24.1538ZM44.531 23.526C44.531 20.3164 46.7429 17.4942 53.4917 17.4942C60.2821 17.4942 62.4932 20.3164 62.4932 23.526V38.7266C62.4932 41.9393 60.2821 44.7593 53.4917 44.7593C46.7429 44.7593 44.531 41.9393 44.531 38.7266V23.526Z" fill="#FFFFFF"/>
<path d="M71.3682 43.642C71.3682 44.1901 71.2067 44.4253 70.6547 44.4253H68.2494C67.736 44.4253 67.5378 44.1901 67.5378 43.642V18.5681C67.5378 18.0213 67.736 17.7839 68.2494 17.7839H70.6547C71.2067 17.7839 71.3682 18.0213 71.3682 18.5681V43.642Z" fill="#FFFFFF"/>
<path d="M93.8812 38.9673C93.8812 42.1801 91.9441 45 85.1559 45C78.3661 45 76.4316 42.1801 76.4316 38.9673V23.7667C76.4316 20.5571 78.3661 17.735 85.1559 17.735C91.9441 17.735 93.8812 20.5571 93.8812 23.7667V25.6865C93.8812 26.2345 93.6828 26.4678 93.1682 26.4678H90.8785C90.3266 26.4678 90.1289 26.2345 90.1289 25.6865V24.3945C90.1289 22.2766 88.7472 20.9865 85.193 20.9865C81.644 20.9865 80.3015 22.2766 80.3015 24.3945V38.3422C80.3015 40.4567 81.644 41.747 85.193 41.747C88.7472 41.747 90.1289 40.4567 90.1289 38.3422V36.4997C90.1289 35.9907 90.3266 35.7555 90.8785 35.7555H93.1682C93.6828 35.7555 93.8812 35.9907 93.8812 36.4997V38.9673Z" fill="#FFFFFF"/>
<path d="M98.6458 45C98.1312 45 97.9348 44.7648 97.9348 44.2168V19.1429C97.9348 18.596 98.1312 18.3586 98.6458 18.3586H112.143C112.658 18.3586 112.895 18.5604 112.895 19.1048V20.8697C112.895 21.414 112.658 21.6117 112.143 21.6117H101.763V29.5251H111.435C111.987 29.5251 112.224 29.7186 112.224 30.2708V31.9539C112.224 32.4634 111.987 32.6981 111.435 32.6981H101.763V41.7487H112.58C113.093 41.7487 113.328 41.9036 113.328 42.4516V44.2558C113.328 44.8038 113.093 45 112.58 45H98.6458Z" fill="#FFFFFF"/>
<path d="M158.928 17.8905H157.418V3.19472H158.71C163.226 3.19472 164.906 5.15919 164.906 10.4499C164.906 15.9446 163.339 17.8905 158.928 17.8905ZM158.461 3.69545e-06H149.73C149.215 3.69545e-06 148.98 0.198135 148.98 0.746164V2.51079C148.98 3.05711 149.215 3.2528 149.73 3.2528L151.788 3.25499V17.8302H149.73C149.215 17.8302 148.98 18.0259 148.98 18.5725V20.3351C148.98 20.8829 149.215 21.0813 149.73 21.0813L158.648 21.0847C166.497 21.0847 171 17.1951 171 10.4201C171 3.79936 166.429 3.69545e-06 158.461 3.69545e-06Z" fill="#FFFFFF"/>
<path d="M145.809 3.26649V3.26429H146.034C146.547 3.26429 146.787 3.06884 146.787 2.52228V0.757658C146.787 0.209628 146.547 0.0114986 146.034 0.0114986H145.809H145.321H137.783H137.192H137.188C136.807 0.0114986 136.58 0.124471 136.484 0.397997L136.482 0.4019L132.598 12.2587L128.447 0.396043H128.445C128.352 0.12447 128.124 0.0114986 127.747 0.0114986H127.153H118.707C118.194 0.0114986 117.957 0.209628 117.957 0.757658V2.52228C117.957 3.06884 118.194 3.26429 118.707 3.26429H120.642V17.8417H118.707C118.194 17.8417 117.957 18.0374 117.957 18.584V20.3466C117.957 20.8944 118.194 21.0928 118.707 21.0928L125.8 21.0965C126.313 21.0965 126.552 20.9005 126.552 20.3505V18.5896C126.552 18.0396 126.313 17.8434 125.8 17.8434L123.96 17.8417V4.40549L129.914 20.7275C130.004 21.015 130.233 21.1265 130.618 21.1265H131.962C132.34 21.1265 132.565 21.0191 132.658 20.7531L132.664 20.7475L138.41 4.42867V17.8417L136.568 17.8434C136.055 17.8434 135.818 18.0396 135.818 18.5896V20.3505C135.818 20.9005 136.055 21.0965 136.568 21.0965H146.034C146.547 21.0965 146.787 20.9005 146.787 20.3505V18.5896C146.787 18.0396 146.547 17.8434 146.034 17.8434L144.035 17.8417V3.26649H145.809Z" fill="#FFFFFF"/>
</svg>
