<svg width="152" height="40" viewBox="0 0 152 40" fill="none" xmlns="http://www.w3.org/2000/svg">
<path d="M15.509 34.4237C15.509 37.2795 13.7895 39.7861 7.75623 39.7861C1.71864 39.7861 0 37.2795 0 34.4237V20.9121C0 18.0591 1.71864 15.5505 7.75623 15.5505C13.7895 15.5505 15.509 18.0591 15.509 20.9121V22.6186C15.509 23.1057 15.3324 23.3131 14.8778 23.3131H12.8417C12.3511 23.3131 12.1745 23.1057 12.1745 22.6186V21.4701C12.1745 19.5875 10.9484 18.4408 7.7905 18.4408C4.63257 18.4408 3.4375 19.5875 3.4375 21.4701V33.868C3.4375 35.7476 4.63257 36.8945 7.7905 36.8945C10.9484 36.8945 12.1745 35.7476 12.1745 33.868V32.2303C12.1745 31.7779 12.3511 31.5688 12.8417 31.5688H14.8778C15.3324 31.5688 15.509 31.7779 15.509 32.2303V34.4237Z" fill="white"/>
<path d="M22.5363 25.6646H31.6587V16.5051C31.6587 16.0191 31.8342 15.808 32.2888 15.808H34.4653C34.9214 15.808 35.0977 16.0191 35.0977 16.5051V38.793C35.0977 39.2802 34.9214 39.4893 34.4653 39.4893H32.2888C31.8342 39.4893 31.6587 39.2802 31.6587 38.793V28.5543H22.5363V38.793C22.5363 39.2802 22.3957 39.4893 21.9051 39.4893H19.7633C19.3074 39.4893 19.1328 39.2802 19.1328 38.793V16.5051C19.1328 16.0191 19.3074 15.808 19.7633 15.808H21.9051C22.3957 15.808 22.5363 16.0191 22.5363 16.5051V25.6646Z" fill="white"/>
<path d="M52.1104 21.4701C52.1104 19.5875 50.7056 18.4408 47.5481 18.4408C44.4281 18.4408 43.0222 19.5875 43.0222 21.4701V33.868C43.0222 35.7476 44.4281 36.8945 47.5481 36.8945C50.7056 36.8945 52.1104 35.7476 52.1104 33.868V21.4701ZM39.583 20.9121C39.583 18.0591 41.5491 15.5505 47.5481 15.5505C53.584 15.5505 55.5494 18.0591 55.5494 20.9121V34.4237C55.5494 37.2795 53.584 39.7861 47.5481 39.7861C41.5491 39.7861 39.583 37.2795 39.583 34.4237V20.9121Z" fill="white"/>
<path d="M63.4384 38.793C63.4384 39.2802 63.2949 39.4893 62.8043 39.4893H60.6661C60.2098 39.4893 60.0337 39.2802 60.0337 38.793V16.5051C60.0337 16.0191 60.2098 15.808 60.6661 15.808H62.8043C63.2949 15.808 63.4384 16.0191 63.4384 16.5051V38.793Z" fill="white"/>
<path d="M83.4499 34.6376C83.4499 37.4934 81.728 40 75.6941 40C69.6587 40 67.9392 37.4934 67.9392 34.6376V21.1259C67.9392 18.273 69.6587 15.7644 75.6941 15.7644C81.728 15.7644 83.4499 18.273 83.4499 21.1259V22.8324C83.4499 23.3196 83.2736 23.5269 82.8162 23.5269H80.7809C80.2903 23.5269 80.1146 23.3196 80.1146 22.8324V21.684C80.1146 19.8014 78.8863 18.6547 75.7271 18.6547C72.5724 18.6547 71.3791 19.8014 71.3791 21.684V34.0819C71.3791 35.9615 72.5724 37.1084 75.7271 37.1084C78.8863 37.1084 80.1146 35.9615 80.1146 34.0819V32.4442C80.1146 31.9917 80.2903 31.7827 80.7809 31.7827H82.8162C83.2736 31.7827 83.4499 31.9917 83.4499 32.4442V34.6376Z" fill="white"/>
<path d="M87.6852 40C87.2278 40 87.0532 39.7909 87.0532 39.3038V17.0159C87.0532 16.5298 87.2278 16.3188 87.6852 16.3188H99.6826C100.14 16.3188 100.351 16.4981 100.351 16.982V18.5508C100.351 19.0347 100.14 19.2104 99.6826 19.2104H90.4558V26.2446H99.0534C99.544 26.2446 99.7548 26.4166 99.7548 26.9074V28.4035C99.7548 28.8564 99.544 29.065 99.0534 29.065H90.4558V37.1099H100.071C100.527 37.1099 100.736 37.2477 100.736 37.7348V39.3385C100.736 39.8256 100.527 40 100.071 40H87.6852Z" fill="white"/>
<path d="M141.269 15.9029H139.927V2.83997H141.076C145.09 2.83997 146.583 4.58616 146.583 9.289C146.583 14.1732 145.19 15.9029 141.269 15.9029ZM140.854 0.000219345H133.093C132.636 0.000219345 132.427 0.176336 132.427 0.663473V2.23203C132.427 2.71764 132.636 2.89159 133.093 2.89159L134.923 2.89354V15.8493H133.093C132.636 15.8493 132.427 16.0232 132.427 16.5091V18.0759C132.427 18.5628 132.636 18.7392 133.093 18.7392L141.02 18.7422C147.998 18.7422 152 15.2847 152 9.26254C152 3.37743 147.937 0.000219345 140.854 0.000219345Z" fill="white"/>
<path d="M129.608 2.90376V2.90181H129.808C130.264 2.90181 130.477 2.72808 130.477 2.24224V0.673689C130.477 0.186552 130.264 0.010437 129.808 0.010437H129.608H129.174H122.473H121.948H121.945C121.606 0.010437 121.404 0.110857 121.319 0.353992L121.317 0.35746L117.865 10.8968L114.175 0.352255H114.173C114.09 0.110855 113.888 0.010437 113.553 0.010437H113.025H105.517C105.061 0.010437 104.85 0.186552 104.85 0.673689V2.24224C104.85 2.72808 105.061 2.90181 105.517 2.90181H107.237V15.8595H105.517C105.061 15.8595 104.85 16.0335 104.85 16.5193V18.0861C104.85 18.573 105.061 18.7494 105.517 18.7494L111.822 18.7526C112.278 18.7526 112.491 18.5785 112.491 18.0896V16.5243C112.491 16.0354 112.278 15.861 111.822 15.861L110.186 15.8595V3.91621L115.479 18.4247C115.559 18.6802 115.762 18.7793 116.104 18.7793H117.3C117.635 18.7793 117.835 18.6839 117.918 18.4475L117.924 18.4425L123.031 3.93681V15.8595L121.394 15.861C120.937 15.861 120.727 16.0354 120.727 16.5243V18.0896C120.727 18.5785 120.937 18.7526 121.394 18.7526H129.808C130.264 18.7526 130.477 18.5785 130.477 18.0896V16.5243C130.477 16.0354 130.264 15.861 129.808 15.861L128.031 15.8595V2.90376H129.608Z" fill="white"/>
</svg>
